<svg xmlns="http://www.w3.org/2000/svg" xmlns:xlink="http://www.w3.org/1999/xlink" width="227" height="108" viewBox="0 0 227 108">
    <defs>
        <path id="1bl6x52cta" d="M0 0H227V108H0z"/>
    </defs>
    <g fill="none" fill-rule="evenodd">
        <g>
            <g>
                <g transform="translate(-82 -626) translate(25 142) translate(57 484)">
                    <mask id="1895xfvc3b" fill="#fff">
                        <use xlink:href="#1bl6x52cta"/>
                    </mask>
                    <g mask="url(#1895xfvc3b)">
                        <g>
                            <path fill="#EFAC9C" d="M33.777 70.644c-1.043-.121-2.088-.146-3.117.037-.441.08-.554-.092-.648-.432-.677-2.416-1.056-4.872-.966-7.394.106-3.03.99-5.868 2.096-8.657.832-2.094 1.75-4.164 2.29-6.364.215-.878.422-1.768.415-2.674-.026-3.746.823-7.328 1.993-10.847 1.314-3.957 2.935-7.784 5.09-11.366.06-.102.133-.196.186-.3.471-.921 1.15-1.47 2.257-1.256.093.017.192-.023.289-.034.194-.167.43-.178.666-.178 1.408-.009 2.815-.009 4.224 0 .233 0 .471.002.659.183.767.009 1.53.033 2.295.029.317-.003.44.1.471.432.384 4.28 1.488 8.405 2.657 12.517.114.401.366.33.617.368-.16.324-.154.637-.048.99.61 2.028 1.239 4.054 1.838 6.087.082.275.225.498.443.679.124.257-.152.191-.233.284-.073.648.355.754.857.835 2.756.446 5.485.181 8.21-.282 4.58-.78 8.992-2.178 13.364-3.699.476-.165.586.049.756.337.372.25.447.677.617 1.04.412.887.818 1.778 1.17 2.693.098.258.168.515.16.793.489 1.449 1.018 2.888 1.278 4.405.02.115.06.23.075.344.242 1.86.242 1.865-1.44 2.703-4.316 2.145-8.771 3.939-13.463 5.088-2.559.628-5.156 1.067-7.801 1.133-.362.01-.65 0-.629.52.133 2.932-.165 5.809-1.137 8.598-.022.072-.029.154-.044.229-.309 1.988-1.438 3.307-3.283 4.04-.31.124-.633.215-.946.34-1.122.318-2.264.459-3.432.496-4.244.144-8.426-.463-12.617-.992-1.382-.176-2.757-.443-4.16-.438-.368.002-.687-.15-1.01-.287" transform="translate(11 14)"/>
                            <path fill="#C38E89" d="M33.777 70.644c2.27.145 4.526.459 6.781.752 3.88.5 7.76.985 11.686.77.981-.054 1.938-.285 2.897-.481.236.293.167.639.13.963-.214 1.953-.478 3.9-.73 5.849-.496 3.822-1.11 7.625-1.871 11.404-.5 2.506-1.094 4.995-1.976 7.402-.696 1.898-1.768 3.596-2.912 5.245-.24.344-.324.754-.586 1.076-.207-.194-.324-.088-.461.106-1.84 2.596-3.838 5.074-5.86 7.53-1.633 1.986-3.322 3.929-5.006 5.875-2.12 2.45-4.25 4.892-6.398 7.317-1.276 1.442-2.592 2.85-3.893 4.275-.544.593-1.104 1.175-1.638 1.776-.238.272-.368.214-.584-.044-1.85-2.213-3.721-4.41-5.582-6.62-1.164-1.38-2.319-2.77-3.48-4.153-.087-.106-.201-.185-.303-.278-.652-.397-1.003-1.078-1.508-1.614-.707-.756-1.31-1.607-2.015-2.367-.068-.07-.114-.157-.12-.26-.074-.373-.395-.578-.607-.85-.21-.264-.187-.407.03-.638 1.659-1.757 3.308-3.526 4.954-5.296 2.97-3.192 5.942-6.384 8.902-9.585 1.867-2.022 3.732-4.04 5.573-6.085.999-1.108 1.938-2.27 2.923-3.39.503-.573.596-1.272.662-1.97.245-2.538.474-5.078.615-7.622.145-2.526.408-5.046.476-7.575.013-.507.33-1.034-.1-1.512" transform="translate(11 14)"/>
                            <path fill="#AF7F7D" d="M47.196 103.624c-.06-.869.623-1.372 1.02-1.995 1.045-1.647 1.984-3.327 2.604-5.194 1.102-3.338 1.757-6.78 2.387-10.22.476-2.615.867-5.247 1.19-7.888.272-2.211.682-4.41.744-6.642.55-.25 1.124-.435 1.655-.735 1.37-.773 1.934-2.092 2.427-3.465.214 1.464.627 2.877.962 4.31 1.027 4.44 2.074 8.875 3.119 13.31 1.356 5.754 2.718 11.508 4.076 17.264 1.186 5.027 2.374 10.053 3.556 15.081 1.116 4.762 2.224 9.526 3.34 14.286.17.73.176.725-.575.849-.135.02-.27.061-.402.094-.55.305-1.175.291-1.772.36-.836.094-1.678.152-2.511.27-.3.04-.571-.107-.866-.074-2.167.231-4.335.47-6.5.699-1.994.211-3.985.416-5.978.624-.8.083-1.6.165-2.399.262-.34.042-.496-.073-.555-.423-.415-2.379-.842-4.753-1.268-7.13-.313-1.737-.63-3.479-.945-5.216-.58-3.187-1.156-6.373-1.735-9.56-.514-2.818-1.026-5.638-1.535-8.455-.026-.137-.026-.276-.04-.412" transform="translate(11 14)"/>
                            <path fill="#AFA8A8" d="M55.947 7.796c.068.31.18.615.123.943-.264.117-.352-.103-.456-.253-.703-.984-1.715-1.402-2.855-1.6-.412-.074-.622.068-.787.489-.533 1.353-1.098 2.696-1.836 3.957-.282.482-.648.897-1.1 1.219-.739.524-1.455.43-2.04-.256-.293-.344-.54-.727-.826-1.078-.56-.69-1.188-.71-1.803-.068-.871.906-.693 2.198.39 2.83.15.089.322.146.46.263.318.273.32.518-.044.718-.174.097-.22.175-.19.357.038.214.012.433.02.649.034.888-.224 1.629-1.055 2.076-2.23 1.31-4.489 1.526-6.795.199-.297-.17-.6-.302-.948-.188-.613.205-1.24.15-1.867.11-.35-.11-.719-.143-1.076-.22-2.059-.447-3.635-2.736-3.467-4.308.072-.696.317-1.336.586-1.964.218-.507.154-.932-.256-1.276-1.832-1.543-1.847-3.453-1.034-5.46.772-1.906 1.976-3.46 4.08-4.024 1.604-.428 3.107-.066 4.538.714.727.4 1.373.913 2.054 1.374 1.193.802 2.048.789 3.166-.122.869-.71 1.717-1.444 2.835-1.739 2.586-.681 4.808.088 6.788 1.737 1.376 1.146 2.469 2.522 3.163 4.19.13.226.168.484.232.73" transform="translate(11 14)"/>
                            <path fill="#EAC5C5" d="M43.947 18.043c.858-.747 1.045-1.71.893-2.778-.033-.257-.09-.447.295-.451.355-.005.263-.243.088-.38-.242-.19-.524-.333-.798-.485-.668-.377-.915-.956-.776-1.69.146-.748.49-1.385 1.24-1.676.493-.192.938-.018 1.27.38.339.407.634.85.976 1.254.57.67 1.16.725 1.852.185.787-.609 1.267-1.444 1.646-2.335.437-1.027 1.034-1.99 1.283-3.093.077-.341.35-.286.567-.26 1.342.17 2.581.547 3.309 1.832.064.112.145.183.278.192.337 1.512.465 3.049.577 4.59.062.85-.09 1.684-.11 2.528-.024.977-.216 1.95-.52 2.875-.668 2.028-1.488 2.46-3.556 1.876-1.038-.295-2.037-.71-2.967-1.27-.133-.077-.274-.231-.421-.147-.183.1-.1.324-.082.485.06.564.145 1.124.22 1.686-1.85-.002-3.699-.004-5.548-.004.086-1.032.396-2.02.6-3.027.07-.346-.012-.41-.316-.287" transform="translate(11 14)"/>
                            <path fill="#EFAC9C" d="M57.516 42.526c-.344.026-.467-.181-.555-.477-.52-1.752-1.056-3.503-1.583-5.253-.139-.467-.196-.97-.412-1.393-.216-.426-.055-.562.286-.695 1.931-.357 3.856-.723 5.721-1.367 2.105-.73 4.116-1.655 6.012-2.815.456-.28.773-.405 1 .196.688 1.13 1.255 2.313 1.619 3.587.01.036-.003.08 0 .117.425 1.02.434 1.03-.408 1.795-2.807 2.544-5.9 4.622-9.526 5.824-.558.185-1.13.324-1.697.483-.153.06-.307.077-.457-.002" transform="translate(11 14)"/>
                            <path fill="#D8A8A4" d="M82.384 44.465c-.584-1.536-1.27-3.029-1.947-4.526.23-.112.45-.24.686-.337.664-.275 1.027-.75 1.184-1.47.207-.942.606-1.82 1.188-2.604.265-.355.584-.62 1.038-.714.27-.055.377.046.377.286-.002.333-.028.668-.05 1-.011.156-.044.312-.047.466-.02 1.023.329 1.317 1.288.973 1.089-.39 2.061-1.032 3.077-1.579.536-.29 1.085-.549 1.658-.758.494-.18.79-.005.93.49.31 1.084-.061 2.072-.53 2.993-1.138 2.244-2.973 3.715-5.327 4.541-1.074.375-2.158.71-3.24 1.052-.122.04-.21.095-.285.187M69.605 34.427c-.54-1.235-1.078-2.47-1.619-3.704 1.546-.637 2.555-1.892 3.658-3.069 1.192-1.274 2.5-2.442 3.97-3.406.174-.117.388-.194.598-.231.4-.073.619.108.526.527-.066.302-.16.6-.32.88-.537.938-1.046 1.889-1.428 2.903-.41 1.093-.112 1.534 1.025 1.543.346.002.704-.058 1.021.185.328.251.375.483.04.75-.642.51-1.396.804-2.156 1.062-1.149.39-2.31.76-3.481 1.08-.845.234-1.299.895-1.834 1.48" transform="translate(11 14)"/>
                            <path fill="#5C5C79" d="M33.262 17.942c.382-.038.75-.004 1.076.223-.383.048-.734-.07-1.076-.223" transform="translate(11 14)"/>
                            <path fill="#BFBECA" d="M55.947 7.796c-.124-.23-.25-.457-.232-.73.232.194.285.445.232.73" transform="translate(11 14)"/>
                            <path fill="#A1A4D0" d="M57.516 42.526c.15.002.304.002.457.002-.212.17-.461.216-.721.22.024-.152.196-.123.264-.222" transform="translate(11 14)"/>
                            <path fill="#EDECC0" d="M35.762 34.528s3.822 5.736 20.392 4.46c0 0 1.274 1.913 1.274 3.824 0 1.623-17.861 1.863-22.94-3.941l1.274-4.343zM31.938 52.37s5.456 9.561 28.677 7.01c0 0-.282 3.462-.637 5.096-.463 2.118-21.14 2.22-29.063-4.842-.566-.504-1.106-1.441-.888-2.164l1.911-5.1z" transform="translate(11 14)"/>
                            <path fill="#835A72" d="M157.267 75.357c-1.043.064-2.083.138-3.122.264-1.078.132-2.16.245-3.24.373-1.25.145-2.5.32-3.75.445-.842.086-1.689.148-2.522.24-1.742.192-3.477.141-5.214.128-1.045-.006-2.077-.139-3.064-.502-.199-.075-.417-.093-.626-.14.03.334.355.312.553.351.483.095.626.388.719.803.28 1.245.604 2.482.908 3.723.56 2.28 1.19 4.546 1.819 6.81.69 2.491 1.43 4.969 2.193 7.44.362 1.169.73 2.337 1.113 3.5.073.224.075.462.142.684.176.084.341.177.332.404.448 1.31.887 2.62 1.35 3.926.705 1.99 1.408 3.981 2.149 5.959.754 2.015 1.54 4.023 2.339 6.02.816 2.04 1.64 4.074 2.504 6.091 1.05 2.448 2.143 4.875 3.221 7.31.41.929.836 1.852 1.263 2.774.062.13.124.278.26.366.627.057 1.253.123 1.877.13 1.812.024 3.624.022 5.438.002.595-.006 1.195-.055 1.781-.156.144-.282-.053-.54-.119-.779-.22-.775-.41-1.558-.613-2.334-.205-.79-.407-1.585-.593-2.381-.196-.835-.416-1.667-.615-2.502-.143-.606-.306-1.213-.423-1.83-.108-.573-.256-1.144-.384-1.715-.218-.97-.44-1.94-.65-2.912-.152-.706-.289-1.415-.436-2.123-.146-.708-.313-1.411-.428-2.123-.11-.686-.26-1.367-.388-2.05-.101-.55-.179-1.107-.302-1.65-.185-.828-.262-1.67-.448-2.497-.09-.401-.14-.807-.207-1.21-.172-1.078-.368-2.154-.496-3.237-.174-1.466-.419-2.92-.59-4.387-.135-1.164-.303-2.33-.428-3.498-.093-.853-.163-1.715-.265-2.568-.114-.977-.178-1.96-.264-2.941-.093-1.045-.179-2.099-.25-3.148-.094-1.433-.12-2.87-.249-4.301-.04-.424-.081-.847-.07-1.27.042-1.742-.159-3.477-.135-5.216 0-.097.003-.194-.07-.273" transform="translate(11 14)"/>
                            <path fill="#65416B" d="M143.267 99.563c.02-.687-.293-1.3-.483-1.937-.333-1.122-.714-2.231-1.032-3.358-.34-1.208-.745-2.4-1.102-3.606-.333-1.138-.635-2.28-.955-3.422-.269-.957-.56-1.911-.815-2.875-.318-1.186-.609-2.378-.906-3.567l-.794-3.178c-.015-.067-.048-.13-.062-.197-.167-.904-.167-.908-1.069-1.093-.13-.027-.26-.027-.32-.163-2.012-.573-3.092-1.967-3.677-3.796-.18-.56-.379-1.116-.53-1.685-.058-.214-.149-.123-.257-.088-.555 2.28-1.045 4.572-1.486 6.874-.423 2.211-.795 4.429-1.124 6.655-.289 1.98-.564 3.966-.758 5.96-.194 1.981-.43 3.956-.615 5.938-.146 1.543-.267 3.089-.36 4.636-.235 3.946-.46 7.895-.544 11.845-.104 4.872-.216 9.744-.13 14.616.026 1.484.055 2.965.084 4.447.004.147-.038.304.088.43.452.19.939.11 1.397.119 1.956.04 3.913.026 5.869.01.073-.002.143-.01.214-.024.236-.134.5-.105.756-.099.258.007.434-.112.476-.335.146-.763.364-1.508.556-2.26.2-.776.403-1.554.6-2.332.15-.593.301-1.188.445-1.781.119-.5.264-.994.388-1.497.154-.633.306-1.27.48-1.898.199-.719.38-1.444.565-2.167.158-.62.313-1.24.471-1.859.13-.513.267-1.025.4-1.538.156-.607.312-1.213.458-1.824.125-.511.275-1.018.403-1.53.21-.846.426-1.69.642-2.535.143-.55.282-1.104.425-1.657.144-.565.3-1.127.428-1.696.123-.54.284-1.073.408-1.613.14-.624.302-1.242.465-1.857.15-.564.3-1.13.432-1.697.187-.79.465-1.559.569-2.366" transform="translate(11 14)"/>
                            <path fill="#EAC5C5" d="M132.789 12.924c-.487 1.882-.505 3.82-.412 5.747.086 1.764.277 3.518 1.214 5.108.6 1.012 1.175 1.177 2.357 1.038 1.63-.194 3.077-.864 4.488-1.622.37-.2.485-.155.452.238-.053.569-.154 1.135-.233 1.702-.038.27-.23.286-.463.293-.796.022-1.594-.068-2.39.046 1.096.062 2.187.013 3.278.013 2.286 0 4.57.01 6.854.014.16 0 .326-.018.485-.027-.399-.114-.805-.028-1.208-.048-.247-.011-.375-.084-.428-.338-.24-1.135-.507-2.266-.756-3.399-.042-.194-.088-.395.161-.531.23-.126.251-.344.2-.571-.182.472-.68.679-1.21.516-.134-.042-.174-.126-.19-.238-.176-1.266-.378-2.527-.509-3.794-.037-.338.146-.697.217-1.045.09-.448.119-.893-.03-1.336 0 0 .058-5.65-1.853-5.65s-7.01-1.275-7.648-.638c-.637.637-1.567 1.396-2.376 4.522" transform="translate(11 14)"/>
                            <path fill="#C38E89" d="M160.845 75.115c.829-2.47 1.214-5 1.16-7.596-.058-2.791-.807-5.428-1.828-8.016-.875-2.22-1.927-4.376-2.62-6.662-.372-1.232-.66-2.48-.67-3.768-.017-2.123-.288-4.217-.786-6.278-.578-2.372-1.332-4.698-2.249-6.973-1.252-3.102-2.659-6.14-4.466-8.992-.291-.457-.604-.902-.977-1.303-.126-.137-.251-.262-.44-.315-3.38-.223-6.758-.064-10.135 0-.218.037-.247.18-.262.359-.208 2.418-.69 4.79-1.275 7.151-.467 1.89-1.031 3.757-1.563 5.63-.077.279-.242.342-.513.316-1.26-.121-2.494-.366-3.724-.648-2.319-.531-4.521-1.376-6.677-2.34-.066.228.132.28.27.351 1.659.807 3.387 1.444 5.18 1.932.914.25 1.836.471 2.766.641.562.104 1.12.256 1.702.262.564.005.666.122.505.613-.622 1.9-1.164 3.825-1.843 5.71-.097.269-.124.553-.227.82-.172.439-.338.523-.823.423-1.657-.337-3.231-.897-4.76-1.585-.198-.09-.392-.277-.643-.11.668.503 1.477.739 2.244 1.034 1.111.428 2.253.783 3.446.948.185.026.357.068.32.29-.04.241-.038.504-.38.596-.606.168-1.23.238-1.845.287-1.292.103-2.588.09-3.882-.013-1.946-.16-3.869-.459-5.776-.843-1.598-.326-3.18-.707-4.753-1.135-1.926-.525-3.842-1.091-5.74-1.708-.457-.15-.915-.291-1.365-.452-.644-.23-.641-.236-.974.288-.459.452-.633 1.05-.897 1.597-.373.767-.715 1.545-1.03 2.336-.086.205-.145.413-.148.635-.152.712-.513 1.356-.72 2.05-.415 1.405-.832 2.805-.845 4.282-.002.326.106.513.412.661 3.034 1.47 6.127 2.82 9.325 3.93 2.412.838 4.868 1.54 7.383 2.06 2.417.502 4.85.846 7.32.921.436.013.557.146.54.55-.086 1.895.015 3.782.374 5.65.089.453.223.897.051 1.355.157.12.203.295.25.467.206.78.548 1.513.817 2.269.646 1.82 2.002 2.881 3.869 3.439 3.08 1.027 6.248.756 9.409.564 2.934-.178 5.835-.626 8.75-.948 1.49-.163 2.974-.352 4.473-.445.216-.015.432-.055.641-.117.152-.123.33-.143.523-.132.912.042 1.832-.093 2.74.084.13.024.286.03.366-.122" transform="translate(11 14)"/>
                            <path fill="#AF7F7D" d="M125.947 44.736c.697.28 1.398.554 2.09.843 1.084.447 2.226.727 3.37 1.003.499.123.741-.031.911-.565.58-1.84 1.149-3.688 1.724-5.53.126-.396.23-.801.388-1.187.163-.408-.08-.549-.408-.547-.91.011-1.779-.225-2.65-.399-1.05-.202-2.08-.505-3.106-.82-1.455-.447-2.855-1.007-4.224-1.65-.103-.047-.196-.087-.222-.202-.873-.48-1.784-.895-2.62-1.437-.447-.29-.454.148-.612.337-.214.122-.291.342-.382.54-.438.942-.884 1.88-1.316 2.829-.068.152-.099.306-.106.467-.046.122-.088.245-.138.368-.283.693-.283.693.282 1.202 2.043 1.834 4.288 3.4 6.761 4.667.08.037.172.055.258.081" transform="translate(11 14)"/>
                            <path fill="#D8A8A4" d="M105.168 48.597c.646-1.541 1.34-3.063 2.072-4.566-.23-.121-.448-.273-.692-.357-.756-.26-1.118-.77-1.308-1.508-.244-.961-.66-1.874-1.285-2.685-.222-.293-.518-.483-.84-.617-.452-.19-.7-.016-.659.451.042.519.055 1.039.07 1.56.023.75-.38 1.07-1.22.755-1.151-.436-2.212-1.056-3.303-1.61-.558-.281-1.126-.552-1.706-.788-.591-.238-1.045.022-1.169.637-.19.965.093 1.863.516 2.711 1.04 2.081 2.743 3.525 4.934 4.465 1.096.47 2.246.798 3.401 1.108.402.106.867.117 1.189.444M118.784 38.418c.6-1.279 1.204-2.557 1.804-3.836-.842-.295-1.662-.628-2.28-1.29-1.768-1.891-3.63-3.68-5.802-5.156-.163-.113-.329-.207-.547-.232-.26-.026-.529-.165-.732.095-.185.238-.079.492.04.719.459.886.933 1.766 1.406 2.65.212.397.364.818.479 1.248.223.813-.08 1.183-.961 1.197-.28.004-.562.015-.842.006-.203-.006-.358.069-.507.188-.355.284-.369.522.002.795.509.37 1.11.576 1.695.807 1.237.487 2.509.915 3.807 1.182 1.107.227 1.766.893 2.438 1.627" transform="translate(11 14)"/>
                            <path fill="#181A44" d="M150.08 14.396c1.299 1.111 2.439 2.405 3.678 3.585 1.223 1.166 2.535 2.156 4.239 2.363 1.347.168 2.507-.254 3.408-1.296 1.605-1.852 2.16-4.052 1.565-6.506-.432-1.774-1.884-3.018-3.661-3.09-3.29-.135-6.541.061-9.59 1.6-.23.115-.434.236-.575-.165-.891-2.57-2.763-3.726-5.2-4.09-1.185-.176-2.364-.346-3.561-.33-.348.004-.492-.08-.562-.477-.322-1.825-1.413-2.947-3.01-3.16-1.408-.188-2.808.627-3.45 2.012-.68 1.468-.377 3.11.812 4.376.03.033.06.066.086.097.326.584.881.774 1.446.9 1.226.273 2.436.654 3.699.696.315.009.428.172.399.507-.064.831-.044 1.664-.02 2.498.027.795.247.928.906.61.988-.48 2.207.285 2.394 1.508.144.93-.262 2.236-1.186 2.582-.423.178-.566.476-.344.926.51.983 1.138 1.86 1.996 2.537.619.492 1.29.727 2.06.492 1.2-.219 2.038-.99 2.684-2.024.818-1.299 1.236-2.751 1.422-4.288.06-.49.103-.981.116-1.473.005-.172-.06-.425.25-.39" transform="translate(11 14)"/>
                        </g>
                    </g>
                </g>
            </g>
        </g>
    </g>
</svg>
