<svg xmlns="http://www.w3.org/2000/svg" xmlns:xlink="http://www.w3.org/1999/xlink" width="168" height="104" viewBox="0 0 168 104">
    <defs>
        <path id="j439yuyoya" d="M0.028 0.183L25.023 0.183 25.023 21.217 0.028 21.217z"/>
        <path id="fkhze5ps8c" d="M0.001 0.287L46.922 0.287 46.922 29.954 0.001 29.954z"/>
    </defs>
    <g fill="none" fill-rule="evenodd">
        <g>
            <g>
                <g>
                    <g>
                        <g>
                            <path fill="#FFF3F3" d="M.93 53.587C5.247 76.71 33.7 90.854 64.48 85.177c30.781-5.68 52.233-29.03 47.917-52.154-4.316-23.125-32.769-37.268-63.55-31.59C18.067 7.113-3.387 30.463.93 53.587" transform="translate(-104 -633) translate(25 142) translate(79 491.83) translate(55)"/>
                            <path fill="#E4E3E3" d="M62.317 48.772c-.092.24-.103.495-.142.745.244-.215.116-.494.142-.745" transform="translate(-104 -633) translate(25 142) translate(79 491.83) translate(55)"/>
                            <path fill="#EAC5C5" d="M65.57 58.487c-.66-.53-.673-2.157-1.468-1.835-1.014.411-2.048 1.449-2.343 2.648-.646 2.615-1.137 5.27-1.616 7.923-.21 1.165-.012 1.301 1.09.873.985-.381 1.796-.07 2.524.52.639.516 1.208 1.125 1.781 1.717.564.58.452.966-.377 1.078-.156.022-.316.036-.472.015-2.088-.279-4.151-.078-6.234.148-1.786.197-2.603-.64-2.791-2.417-.231-2.179-.51-4.352-.744-6.53-.08-.756-.466-.926-1.133-.72-.716.22-1.42.52-2.151.627-1.098.161-1.202.728-.96 1.644.158.6.196 1.241.206 1.865.044 3.17-1.295 4.814-4.458 5.33-2.026.332-4.068.299-6.13.18-3.22-.189-6.45-.367-9.675.18-1.624.276-3.276.52-4.941.372-.499-.044-1.087-.071-1.24-.697-.145-.601.273-.946.733-1.214 1.03-.596 2.005-1.257 2.736-2.21.629-.825.463-1.218-.56-1.447-2.715-.606-5.426-.737-8.146-.008-.846.224-1.72.268-2.576.049-.43-.111-.83-.34-.898-.833-.064-.464.276-.733.632-.904 1.603-.766 2.662-2 3.435-3.578.646-1.313 2.247-1.626 3.278-.582 1.049 1.06 2.065.888 3.227.42 1.278-.51 2.556-1.032 3.861-1.479.908-.31 1.865-.338 2.784.009.817.31.96-.12.78-.729-.198-.684-.383-1.357-.365-2.072-.243-.704-.372-1.344.498-1.779.584-.292.344-.914.338-1.391-.017-1.302.269-2.47 1.154-3.48 1.212-1.385 2.843-1.64 4.52-1.602 3.072.075 5.249 1.823 6.948 4.143 1.212 1.654 2.115 3.516 2.613 5.152-.605-4.586-1.26-9.538-3.171-14.218-.517-1.263-.184-1.647 1.137-1.589 2.7.12 5.431.476 7.996-.782 2.144-1.098 4.327-2.12 6.501-3.155 1.154-.55 1.362-.872.882-1.998-.416-.97-.654-1.978-.86-3-.061-.296-.195-.48-.44-.644-1.629-1.089-2.23-2.545-1.612-4.362.357-1.052.604-2.331 2.161-2.439.484-.032.676-.545.78-.948.338-1.303 1.05-2.398 1.83-3.462 2.19-2.928 4.998-4.997 8.587-5.86 5.531-1.328 10.527-.052 15.02 3.319 2.868 2.148 4.615 4.998 5.094 8.546.544 4.054-.679 7.684-3.032 10.924-1.75 2.408-3.615 4.743-5.625 6.952-1.571 1.728-3.387 3.043-5.836 3.203-.159-.4.073-.613.41-.657.738-.097 1.357-.534 1.844-.622-1.973.984-4.215.989-6.524.282-1.897-.582-3.508-1.657-5.099-2.752-1.395-.956-2.912-1.803-3.728-3.11.893.976 1.773 2.25 2.748 3.45.38.47.757.703 1.416.496.59-.184 1.214-.132 1.118.787-.966.068-1.031.746-.912 1.443.846 4.935 1.208 9.961 2.9 14.733.286.805.41 1.672.557 2.519.124.717.544.89 1.185.772.078-.015.157-.024.232-.047 3.208-.903 2.968-.236 4.788 2.52.172.262.3.6.068.882-.267.329-.657.257-.98.1-.67-.325-1.31-.711-1.976-1.045-.32-.16-.698-.272-1.01-.022-.411.331-.044.62.117.913.364.66.077.97-.594 1-1.142.054-2.284.038-3.408-.235-.735-.179-1.131-.715-1.438-1.306-1.339-2.574-2.668-5.155-3.96-7.753-.363-.73-.937-1.372-1.027-2.228.326-.177.392-.474.498-.816.566-1.821 1.054-3.662 1.492-5.46-.408.485-.746 1.1-1.175 1.648-.833 1.064-1.287 2.139-.467 3.431.298.47.121.9-.346 1.204" transform="translate(-104 -633) translate(25 142) translate(79 491.83) translate(55)"/>
                            <path fill="#EAEAEA" d="M55.392 41.285c-1.601 1.02-3.394 1.209-5.222 1.082-.863-.06-1.727-.105-2.594-.137-.975-.038-1.132.308-.778 1.205 1.927 4.891 2.896 9.989 3.133 15.227.017.37.126.78-.259 1.207-.937-2.28-1.816-4.534-3.163-6.53-1.981-2.934-4.715-4.693-8.384-4.022-2.02.37-3.263 1.768-3.334 3.822-.039 1.144-.091 2.29.422 3.394-1.75-1.043-1.75-1.043-1.854.298-.574-3.361-2.053-6.682-.623-10.149 1.134-2.745 3.283-4.28 6.164-4.913 2.24-.492 4.461-.098 6.692.037 2.115.129 4.233.215 6.355.204 1.216-.005 2.255-.683 3.445-.725" transform="translate(-104 -633) translate(25 142) translate(79 491.83) translate(55)"/>
                            <path fill="#C8928B" d="M71.027 46.233c-.323-.396-.764-.618-1.031-.067-.485 1.002-.905.438-1.27-.005-1.423-1.72-2.842-3.449-3.96-5.392-.149-.26-.462-.615-.152-.831.393-.277.606.197.813.445 2.096 2.52 4.774 4.315 7.652 5.767 2.85 1.44 5.865 1.693 8.887.352.17-.075.333-.217.621-.056-.63.92-1.676 1.05-2.58 1.395-.402.153-.842.197-1.164.52-2.886.31-5.45-.556-7.816-2.128M40.476 64.13c-2.101 1.164-4.473 1.476-6.75 2.071-.476.125-.838-.35-1.2-.66-1.082-.922-2.391-.82-3.31.267-.2.241-.327.616-.71.473-1.354-.507-2.839-.015-4.188-.592-.624-.265-1.38-.31-1.978-.084-1.278.484-2.661.272-3.93.74-.278.102-.634.107-.927.042-.441-.1-1.056-.088-1.162-.634-.104-.52.473-.648.826-.865 1.2-.738 2.128-1.685 2.697-3.013.667-1.56 1.968-1.753 3.276-.59.934.83 2.006.566 3.014.232 1.38-.456 2.737-.987 4.074-1.554 1.036-.438 1.985-.367 2.937.179.262.152.533.424.862.205.326-.215.16-.555.158-.862-.002-1.083-.456-2.103-.589-3.233.8.711 1.687 1.212 2.154 1.968 1.275 2.057 2.87 3.81 4.6 5.47.1.095.1.29.146.44M50.245 59.31c-.092-.831.133-1.157.644-1.385 1.13-.5 1.801-1.35 2.267-2.539 1.238-3.17 3.458-5.557 6.41-7.272.135-.079.273-.165.422-.204.282-.077.628-.36.84.008.166.287-.162.499-.355.671-1.306 1.165-2.303 2.56-3.158 4.072-.974 1.723-1.668 3.55-1.875 5.51-.092.873-.49 1.645-.587 2.5-.044.383-.35.598-.696.732-.441.171-.877.352-1.33.489-1.982.606-2.243.427-2.43-1.598-.04-.429-.13-.85-.152-.984M65.57 58.487c.075-.712-.337-1.27-.627-1.859-.218-.446-.35-.878-.11-1.34.84-1.627 1.979-3.049 3.186-4.787.4 1.712-.21 3.025-.481 4.35-.227 1.1-.708 2.145-.987 3.237-.175.684-.464.733-.982.392l.002.007z" transform="translate(-104 -633) translate(25 142) translate(79 491.83) translate(55)"/>
                            <path fill="#E2E2E2" d="M40.476 64.13c.804-.39 1.255.096 1.634.683.128.199-.013.417-.243.406-.71-.033-1.34-.207-1.391-1.089" transform="translate(-104 -633) translate(25 142) translate(79 491.83) translate(55)"/>
                            <path fill="#161943" d="M88.77 22.107c-1.318-.225-2.267-.947-3.208-1.706-1.375-1.108-2.737-2.235-4.35-3-.39-.185-.981-.374-.873-.923.133-.65.806-.867 1.35-.898 1.593-.09 3.006.515 4.324 1.36 1.529.977 3.156 1.561 5.02 1.3 1.355-.188 2.56-.61 3.276-1.92.13-.238.213-.644.568-.507.217.083.392.393.497.639.637 1.494-.39 4.409-1.937 5.148-1.5.717-3.073 1.43-4.668.507" transform="translate(-104 -633) translate(25 142) translate(79 491.83) translate(55)"/>
                        </g>
                        <path fill="#FFF3F3" d="M15.719 73.29L3.028 75.944 5.421 59.869 9.373 64.604z" transform="translate(-104 -633) translate(25 142) translate(79 491.83) translate(55)"/>
                    </g>
                    <g>
                        <g transform="translate(-104 -633) translate(25 142) translate(79 491.83) translate(0 71.359) translate(22.944 8.737)">
                            <mask id="kcqpmorocb" fill="#fff">
                                <use xlink:href="#j439yuyoya"/>
                            </mask>
                            <path fill="#EAC5C5" d="M24.311 7.665c.757 2.996.789 6.085.644 9.152-.132 2.807-.434 5.602-1.893 8.13-.927 1.612-1.822 1.876-3.654 1.653-2.536-.306-4.784-1.375-6.975-2.582-.576-.316-.757-.246-.703.38.078.905.24 1.806.362 2.712.057.428.359.453.718.462 1.237.033 2.48-.107 3.712.075-1.698.097-3.394.02-5.09.02-3.55 0-7.1.016-10.65.023-.252 0-.505-.028-.754-.04.62-.188 1.25-.051 1.877-.078.385-.017.583-.135.665-.537.374-1.81.787-3.61 1.173-5.417.066-.308.138-.626-.247-.843-.357-.2-.393-.547-.313-.912.284.754 1.057 1.085 1.88.825.211-.067.27-.2.295-.38.273-2.014.586-4.02.795-6.04.054-.539-.231-1.107-.341-1.665-.14-.71-.182-1.42.047-2.127 0 0-.09-8.993 2.88-8.993 2.971 0 10.89-2.03 11.88-1.015.991 1.015 2.435 2.219 3.692 7.197" mask="url(#kcqpmorocb)"/>
                        </g>
                        <g transform="translate(-104 -633) translate(25 142) translate(79 491.83) translate(0 71.359)">
                            <mask id="q8uz6l7r5d" fill="#fff">
                                <use xlink:href="#fkhze5ps8c"/>
                            </mask>
                            <path fill="#181A44" d="M20.392 18.747c-2.018 1.768-3.791 3.83-5.713 5.709-1.901 1.857-3.942 3.427-6.589 3.761-2.092.268-3.892-.407-5.291-2.064C.303 23.201-.563 19.702.363 15.795c.67-2.83 2.927-4.806 5.692-4.92 5.107-.214 10.163.097 14.899 2.548.354.184.677.373.891-.264 1.385-4.091 4.293-5.932 8.08-6.514 1.839-.282 3.676-.547 5.533-.523.537.007.765-.125.875-.762.496-2.902 2.193-4.69 4.672-5.031 2.191-.298 4.366 1 5.363 3.205 1.057 2.34.583 4.952-1.264 6.97l-.131.15c-.508.931-1.368 1.232-2.249 1.433-1.904.435-3.782 1.046-5.747 1.11-.488.016-.659.273-.62.807.102 1.323.071 2.653.032 3.976-.04 1.266-.385 1.479-1.408.97-1.534-.763-3.427.458-3.719 2.405-.223 1.48.408 3.557 1.842 4.11.66.283.882.757.538 1.475-.793 1.564-1.77 2.962-3.102 4.039-.964.784-2.003 1.16-3.203.78-1.86-.345-3.161-1.573-4.172-3.22-1.266-2.066-1.918-4.38-2.206-6.829-.092-.777-.16-1.559-.18-2.344-.007-.275.09-.676-.387-.619" mask="url(#q8uz6l7r5d)"/>
                        </g>
                    </g>
                </g>
            </g>
        </g>
    </g>
</svg>
