<svg xmlns="http://www.w3.org/2000/svg" width="168" height="89" viewBox="0 0 168 89">
    <g fill="none" fill-rule="evenodd">
        <g>
            <g>
                <g>
                    <path fill="#FFF3F3" d="M32.926 49.138c0 9.02-7.314 16.335-16.337 16.335-9.022 0-16.337-7.314-16.337-16.335 0-9.023 7.315-16.337 16.337-16.337 9.023 0 16.337 7.314 16.337 16.337M64.633 23.252c0 6.78-5.497 12.277-12.277 12.277-6.78 0-12.275-5.497-12.275-12.277 0-6.78 5.495-12.275 12.275-12.275s12.277 5.495 12.277 12.275M167.748 54.8c0 11.13-9.02 20.152-20.151 20.152-11.128 0-20.15-9.022-20.15-20.151 0-11.13 9.022-20.15 20.15-20.15 11.13 0 20.151 9.02 20.151 20.15" transform="translate(-103 -634) translate(25 142) translate(78 492)"/>
                    <path fill="#FFF3F3" d="M144.56 37.614c0 5.047-4.091 9.14-9.138 9.14-5.048 0-9.14-4.093-9.14-9.14 0-5.048 4.092-9.138 9.14-9.138 5.047 0 9.137 4.09 9.137 9.138" transform="translate(-103 -634) translate(25 142) translate(78 492)"/>
                    <path fill="#FFF3F3" d="M129.284 28.34c0 5.045-4.093 9.137-9.14 9.137-5.047 0-9.138-4.092-9.138-9.137 0-5.048 4.09-9.14 9.138-9.14 5.047 0 9.14 4.092 9.14 9.14" transform="translate(-103 -634) translate(25 142) translate(78 492)"/>
                    <path fill="#FFF3F3" d="M114.592 27.774c0 2.948-2.391 5.338-5.338 5.338-2.95 0-5.34-2.39-5.34-5.338 0-2.949 2.39-5.34 5.34-5.34 2.947 0 5.338 2.391 5.338 5.34M132.83 30.345c0 1.96-1.587 3.547-3.546 3.547-1.958 0-3.545-1.587-3.545-3.547 0-1.957 1.587-3.546 3.545-3.546 1.959 0 3.546 1.589 3.546 3.546M37.625 33.249c0 5.047-4.093 9.14-9.138 9.14-5.047 0-9.14-4.093-9.14-9.14 0-5.046 4.093-9.138 9.14-9.138 5.045 0 9.138 4.092 9.138 9.138" transform="translate(-103 -634) translate(25 142) translate(78 492)"/>
                    <path fill="#FFF3F3" d="M43.12 28.047c0 3.1-2.513 5.611-5.612 5.611-3.098 0-5.61-2.512-5.61-5.611 0-3.101 2.512-5.614 5.61-5.614 3.1 0 5.611 2.513 5.611 5.614M73.907 21.888c0 4.52-3.662 8.185-8.183 8.185-4.519 0-8.184-3.664-8.184-8.185 0-4.52 3.665-8.182 8.184-8.182 4.52 0 8.183 3.662 8.183 8.182" transform="translate(-103 -634) translate(25 142) translate(78 492)"/>
                    <path fill="#FFF3F3" d="M83.728 25.162c0 4.52-3.664 8.184-8.185 8.184-4.518 0-8.182-3.663-8.182-8.184 0-4.52 3.664-8.183 8.182-8.183 4.521 0 8.185 3.662 8.185 8.183" transform="translate(-103 -634) translate(25 142) translate(78 492)"/>
                    <path fill="#FFF3F3" d="M109.916 21.888c0 8.74-7.084 15.824-15.822 15.824-8.739 0-15.823-7.084-15.823-15.824 0-8.737 7.084-15.821 15.823-15.821 8.738 0 15.822 7.084 15.822 15.821" transform="translate(-103 -634) translate(25 142) translate(78 492)"/>
                    <path fill="#EAC5C5" d="M101.072 62.163c.294.511.438 1.09.349 1.667-.317 2.055-.498 4.164-1.146 6.136-1.06 3.235-2.188 5.906-3.64 8.772-2.292 4.54-5.197 10.668-8.225 10.002-1.246-.272-5.751-1.418-4.73-2.514.785-.844 1.574-2.99 1.21-3.15-.242-.11-3.113 2.957-3.798 2.634-1.53-.727-3.52-1.36-4.776-2.086-.322-.186-.626-.37-.911-.55-.187-.118-.367-.235-.534-.35-1.522-1.042-2.228-1.927-1.326-2.363.848-.41 6.371-5.84 7.334-6.884 1.495-1.62 2.165-2.616 1.08-1.523-1.424 1.43-2.787 2.216-4.14 3.237-3.315 2.497-5.978 5.621-9.963 4.185-2.13-.769-9.998-3.91-8.337-4.82 2.62-1.434 8.35-6.126 8.35-6.126 1.084-.891 5.739-3.959 6.145-5.365.098-.334-3.185 2.552-3.781 2.905-3.28 1.94-9.389 7.07-13.187 7.601-2.756.39-7.346-2.467-8.852-3.39-1.195-.734-.78-1.025-.39-1.234 16.934-9.168.84.651-3.92-1.56-2.238-1.037-3.765-2.206-3.93-3.312-.171-1.165 2.16-1.057 5.057-1.7 2.471-.55 4.287-1.196 5.263-1.588 4.554-1.839 5.476-2.42 7.395-3.371 4.028-1.995 1.691-.872 3.77-2.01 3.735-2.05 1.459-.984 5.175-2.69 2.603-1.197 3.38-2.048 5.795-3.417 1.406-.794 3.383 1.01 4.683 1.744 2.475 1.407 5.251 2.201 7.86 3.362 2.701 1.202 5.39 2.439 8.13 3.566.89.366 1.91.377 2.693 1.045" transform="translate(-103 -634) translate(25 142) translate(78 492)"/>
                    <path fill="#845B71" d="M47.684 34.355c-.334 3.395-2.879 5.68-5.697 7.412-.03-.13-.106-.27-.23-.415-3.694-4.306-2.026-10.756 2.212-13.458.13-.087.172-.204.387-.255.577-.138.836.266 1.208.507 2.33 1.518 2.34 3.908 2.12 6.209M32.915 55.945c-.057.329-.085 1.21-.087 1.918-.968-.272-4.432-1.684-5.194-2.276-2.186-1.703-2.277-3.219-2.284-5.27-.006-1.252 1.934-4.497 2.593-5.354.113-.147.266-.088.283-.071.157.143 1.314 1.574 1.952 2.12 3.024 2.584 3.335 5.472 2.737 8.933" transform="translate(-103 -634) translate(25 142) translate(78 492)"/>
                    <path fill="#D8A8A4" d="M74.238 63.16c5.695-4.273 10.423-8.598 8.068-9.492-2.909-1.107-5.108-3.02-5.108-3.02L56.201 64.582l-9.019 4.748s-.95 0 .95.947c1.898.95 6.045 3.779 8.007 3.315 1.96-.467 3.665.392 18.1-10.433M94.122 69.3c3.77-6.355 6.726-12.643 4.572-13.471-2.658-1.022-4.91-3.19-4.91-3.19l-14.296 21.08-6.418 7.446s-.787.134.999 1.097c1.785.96 5.857 4.043 7.376 3.16 1.524-.885 3.126-.013 12.677-16.122" transform="translate(-103 -634) translate(25 142) translate(78 492)"/>
                    <path fill="#C38E89" d="M81.695 48.019l2.672-1.87c.487-.342 1.118-.391 1.652-.135l10.793 5.195c.712.344 1.174 1.053 1.202 1.844l.095 2.845-16.414-7.879z" transform="translate(-103 -634) translate(25 142) translate(78 492)"/>
                    <path fill="#EFAC9C" d="M81.695 48.019l.773-.447c.487-.34 1.118-.391 1.652-.134l12.9 6.229c.713.343.923 1.108.95 1.899v.473l-16.275-8.02z" transform="translate(-103 -634) translate(25 142) translate(78 492)"/>
                    <path fill="#C38E89" d="M94.718 50.072l-.076.156c-2.212.495-3.709-.09-4.654-.802-.944-.711-1.335-1.548-1.335-1.548L110.507.713s2.077-.772 3.79-.362c1.088.26 2.03.998 2.2 2.71l-21.78 47.01z" transform="translate(-103 -634) translate(25 142) translate(78 492)"/>
                    <path fill="#EFAC9C" d="M89.837 49.394c-.963-.719-1.361-1.56-1.361-1.56L110.51.737s.626-1.046 2.369-.63" transform="translate(-103 -634) translate(25 142) translate(78 492)"/>
                    <path fill="#C38E89" d="M72.34 49.394l28.953 14.24s.206-2.278.21-4.236c.003-1.414-.816-2.7-2.092-3.312L79.173 46.37c-1.09-.52-2.375-.45-3.388.206-.925.598-2.135 1.508-3.445 2.818" transform="translate(-103 -634) translate(25 142) translate(78 492)"/>
                    <path fill="#EFAC9C" d="M100.567 63.862L72.612 50.28c-.415-.204-.591-.706-.389-1.124l.223-.454c.202-.42.706-.593 1.123-.39l27.953 13.584c.419.202.59.706.389 1.123l-.221.455c-.204.417-.706.59-1.123.388" transform="translate(-103 -634) translate(25 142) translate(78 492)"/>
                    <path fill="#FFF3F3" d="M116.496 58.056c0 9.022-7.314 16.337-16.336 16.337-9.023 0-16.337-7.315-16.337-16.337 0-9.02 7.314-16.335 16.337-16.335 9.022 0 16.336 7.314 16.336 16.335" opacity=".41" transform="translate(-103 -634) translate(25 142) translate(78 492)"/>
                    <path fill="#FFF3F3" d="M136.683 64.604c0 9.022-7.315 16.334-16.335 16.334-9.025 0-16.339-7.312-16.339-16.334 0-9.023 7.314-16.337 16.339-16.337 9.02 0 16.335 7.314 16.335 16.337" opacity=".47" transform="translate(-103 -634) translate(25 142) translate(78 492)"/>
                    <path fill="#FFF3F3" d="M79.171 60.104c0 12.492-10.127 22.619-22.619 22.619-12.495 0-22.622-10.127-22.622-22.619 0-12.492 10.127-22.619 22.622-22.619 12.492 0 22.62 10.127 22.62 22.619" opacity=".41" transform="translate(-103 -634) translate(25 142) translate(78 492)"/>
                    <path fill="#FFF3F3" d="M41.717 62.808c0 5.423-4.396 9.821-9.82 9.821s-9.82-4.398-9.82-9.82c0-5.424 4.396-9.822 9.82-9.822s9.82 4.398 9.82 9.821" opacity=".61" transform="translate(-103 -634) translate(25 142) translate(78 492)"/>
                    <path fill="#FFF3F3" d="M90.946 44.987c0 5.136-4.164 9.3-9.3 9.3-5.134 0-9.3-4.164-9.3-9.3 0-5.136 4.166-9.3 9.3-9.3 5.136 0 9.3 4.164 9.3 9.3" opacity=".41" transform="translate(-103 -634) translate(25 142) translate(78 492)"/>
                </g>
            </g>
        </g>
    </g>
</svg>
